<?xml version="1.0" encoding="UTF-8"?>
<!DOCTYPE svg PUBLIC "-//W3C//DTD SVG 1.1//EN" "http://www.w3.org/Graphics/SVG/1.1/DTD/svg11.dtd">
<!-- Creator: CorelDRAW X7 -->
<svg xmlns="http://www.w3.org/2000/svg" xml:space="preserve" width="201mm" height="43mm" version="1.1" style="shape-rendering:geometricPrecision; text-rendering:geometricPrecision; image-rendering:optimizeQuality; fill-rule:evenodd; clip-rule:evenodd"
viewBox="0 0 20100 4300"
 xmlns:xlink="http://www.w3.org/1999/xlink">
 <defs>
  <style type="text/css">
   <![CDATA[
    .fil0 {fill:none}
    .fil1 {fill:#373435}
    .fil2 {fill:#FFF212}
    .fil3 {fill:#EC268F}
    .fil4 {fill:#00AFEF}
    .fil5 {fill:black;fill-rule:nonzero}
   ]]>
  </style>
 </defs>
 <g id="Layer_x0020_1">
  <metadata id="CorelCorpID_0Corel-Layer"/>
  <g id="_337837120">
   <polygon class="fil0" points="0,0 20100,0 20100,4300 0,4300 "/>
   <g>
    <g>
     <polygon class="fil1" points="17745,41 20050,41 20050,2345 17745,2345 "/>
     <polygon class="fil2" points="17198,446 19503,446 19503,2750 17198,2750 "/>
     <polygon class="fil3" points="16651,850 18956,850 18956,3155 16651,3155 "/>
     <polygon class="fil4" points="16104,1255 18409,1255 18409,3560 16104,3560 "/>
    </g>
    <path class="fil5" d="M1406 2897c0,-88 -29,-156 -87,-203 -58,-47 -163,-96 -314,-150 -307,-99 -535,-206 -684,-319 -148,-112 -223,-274 -223,-486 0,-207 87,-374 260,-502 173,-129 393,-192 661,-192 281,0 508,66 681,197 172,133 255,318 249,559l-3 9 -557 0c0,-116 -32,-201 -95,-253 -64,-53 -160,-79 -287,-79 -104,0 -187,25 -246,76 -61,51 -90,114 -90,189 0,72 30,130 92,173 62,44 177,99 345,165 287,84 503,188 651,310 147,122 221,290 221,503 0,217 -85,387 -255,510 -170,123 -395,184 -676,185 -280,-1 -516,-66 -710,-199 -195,-131 -289,-339 -283,-622l3 -10 559 0c0,144 35,246 106,307 71,60 179,90 325,90 120,0 209,-24 269,-71 58,-48 88,-110 88,-187zm1392 -1182l20 243c58,-88 131,-156 219,-204 87,-49 188,-73 301,-73 114,0 213,25 295,75 83,50 145,126 187,228 57,-97 130,-171 218,-223 89,-53 193,-80 312,-80 179,0 320,64 422,193 102,129 154,326 154,594l0 1085 -576 0 0 -1085c0,-132 -18,-222 -56,-271 -36,-49 -91,-74 -165,-74 -55,0 -104,10 -147,29 -42,21 -78,48 -108,83 0,19 1,36 2,50 1,14 2,28 2,42l0 1226 -574 0 0 -1085c0,-133 -18,-223 -55,-272 -35,-49 -92,-73 -168,-73 -52,0 -99,10 -141,29 -43,21 -79,48 -108,83l0 1318 -574 0 0 -1838 540 0zm3516 1836c-21,-38 -39,-82 -55,-131 -15,-48 -26,-99 -34,-152 -50,97 -112,175 -185,233 -73,58 -168,87 -285,88 -193,-1 -343,-50 -450,-149 -107,-99 -160,-234 -160,-405 0,-182 68,-323 205,-422 137,-99 345,-149 623,-149l237 0 0 -131c0,-77 -20,-138 -57,-179 -37,-42 -94,-63 -171,-63 -67,0 -117,15 -149,46 -32,32 -48,80 -48,146l-557 -2 -4 -10c-7,-168 62,-308 210,-421 148,-112 343,-169 585,-169 228,0 412,57 553,170 141,114 211,275 211,486l0 693c0,97 8,188 25,271 16,84 41,168 74,252l-568 -2zm-404 -372c71,0 133,-16 186,-49 54,-33 92,-72 114,-117l0 -243 -232 0c-91,0 -157,22 -198,66 -41,44 -61,100 -61,168 0,53 18,94 53,127 36,32 82,48 138,48zm2203 -974l-187 -2c-65,0 -119,12 -161,36 -42,25 -73,59 -93,103l0 1211 -575 0 0 -1838 541 0 20 270c38,-96 89,-171 153,-224 63,-53 137,-80 223,-80 25,0 49,2 69,5 20,4 42,9 64,16l-54 503zm898 -946l0 456 291 0 0 398 -291 0 0 842c0,66 14,113 40,142 27,29 63,43 108,43 30,0 53,-1 70,-3 18,-3 40,-7 68,-14l39 424c-58,16 -110,26 -157,32 -46,6 -101,9 -164,10 -189,-1 -333,-51 -431,-152 -98,-100 -146,-260 -146,-478l0 -846 -257 0 0 -398 257 0 0 -456 573 0zm2271 1414c0,276 -63,498 -187,665 -125,167 -300,250 -527,251 -88,-1 -166,-18 -235,-51 -69,-35 -128,-84 -179,-148l0 869 -574 0 0 -2544 542 0 17 201c51,-75 112,-133 182,-173 71,-41 152,-62 244,-62 227,0 404,88 529,264 125,175 188,406 188,693l0 35zm-573 -35c0,-156 -23,-280 -68,-374 -45,-94 -117,-141 -217,-141 -64,0 -119,12 -164,36 -45,24 -80,58 -106,103l0 768c27,39 63,69 108,88 45,19 100,29 165,29 101,0 174,-42 217,-125 44,-83 65,-200 65,-349l0 -35zm1841 -433l-187 -2c-65,0 -119,12 -161,36 -42,25 -73,59 -93,103l0 1211 -575 0 0 -1838 541 0 20 270c38,-96 89,-171 153,-224 63,-53 137,-80 222,-80 26,0 50,2 70,5 20,4 42,9 64,16l-54 503zm811 1348l-575 0 0 -1838 575 0 0 1838zm0 -2264l-575 0 0 -385 575 0 0 385zm880 426l22 258c60,-91 135,-163 223,-214 88,-52 187,-78 295,-78 181,0 321,62 422,184 102,122 152,316 152,582l0 1106 -574 0 0 -1107c0,-117 -18,-200 -56,-249 -37,-49 -91,-74 -163,-74 -61,0 -116,11 -164,32 -49,22 -90,52 -123,92l0 1306 -572 0 0 -1838 538 0zm2086 -456l0 456 290 0 0 398 -290 0 0 842c0,66 13,113 40,142 26,29 62,43 107,43 30,0 53,-1 71,-3 18,-3 40,-7 67,-14l39 424c-58,16 -110,26 -156,32 -47,6 -102,9 -165,10 -189,-1 -333,-51 -431,-152 -98,-100 -146,-260 -146,-478l0 -846 -257 0 0 -398 257 0 0 -456 574 0z"/>
   </g>
  </g>
 </g>
</svg>
